<?xml version="1.0" encoding="UTF-8" standalone="no"?>
<!DOCTYPE svg PUBLIC "-//W3C//DTD SVG 1.1//EN" "http://www.w3.org/Graphics/SVG/1.1/DTD/svg11.dtd">
<svg width="100%" height="100%" viewBox="0 0 80 93" version="1.1" xmlns="http://www.w3.org/2000/svg" xmlns:xlink="http://www.w3.org/1999/xlink" xml:space="preserve" xmlns:serif="http://www.serif.com/" style="fill-rule:evenodd;clip-rule:evenodd;stroke-linejoin:round;stroke-miterlimit:1.41421;">
    <g transform="matrix(1,0,0,1,-536.529,-249.432)">
        <g transform="matrix(0.6643,0,0,0.6643,6.27472,89.3608)">
            <path d="M799.528,274.836C800.709,272.626 802.902,271.274 802.902,271.274L853.06,242.328C853.06,242.328 855.195,240.999 858.051,240.962C860.767,240.927 863.06,242.349 863.06,242.349L912.918,271.274C912.918,271.274 915.079,272.667 916.281,274.836C917.592,277.201 917.646,279.661 917.646,279.661L917.646,342.504C917.646,342.504 917.732,344.871 916.281,347.321C914.779,349.859 912.587,350.96 912.587,350.96L862.926,379.546L862.926,346.6L890.871,330.479C890.871,330.479 892.687,329.32 893.033,327.752C893.32,326.454 893.525,325.132 892.36,323.378C891.666,322.334 890.44,321.442 888.92,321.252C886.885,320.998 885.496,322.016 885.496,322.016L862.926,335.053L862.926,311.392L877.711,302.856C877.711,302.856 879.843,301.759 880.212,299.226C880.471,297.45 879.77,296.129 879.052,295.251C878.448,294.513 877.383,293.808 876.146,293.59C874.244,293.256 872.97,294.051 872.97,294.051L862.926,299.845L862.926,277.066C862.926,277.066 863.017,275.35 861.51,273.757C860.644,272.841 859.289,272.247 857.929,272.248C856.541,272.248 855.306,272.782 854.333,273.757C852.956,275.136 852.92,277.066 852.92,277.066L852.926,299.841L842.969,294.089C842.969,294.089 841.208,293.044 839.095,293.735C838.061,294.074 837.162,294.698 836.471,295.678C835.801,296.627 835.35,298.088 835.786,299.841C836.264,301.762 837.979,302.757 837.979,302.757L852.926,311.392L852.92,334.996L830.435,322.066C830.435,322.066 829.042,321.036 827.115,321.231C825.737,321.371 824.373,322.126 823.498,323.378C822.749,324.451 822.304,325.997 822.864,327.752C823.468,329.64 825.228,330.607 825.228,330.607L852.92,346.595L852.926,346.598L852.926,379.546L803.166,350.878C803.166,350.878 800.942,349.617 799.528,347.248C798.277,345.152 798.221,342.504 798.221,342.504L798.221,279.661C798.221,279.661 798.054,277.594 799.528,274.836Z" style="fill:rgb(83,191,31);"/>
        </g>
    </g>
</svg>
