<?xml version="1.0" encoding="UTF-8" standalone="no"?>
<!DOCTYPE svg PUBLIC "-//W3C//DTD SVG 1.1//EN" "http://www.w3.org/Graphics/SVG/1.1/DTD/svg11.dtd">
<svg width="100%" height="100%" viewBox="0 0 224 81" version="1.1" xmlns="http://www.w3.org/2000/svg" xmlns:xlink="http://www.w3.org/1999/xlink" xml:space="preserve" xmlns:serif="http://www.serif.com/" style="fill-rule:evenodd;clip-rule:evenodd;stroke-linejoin:round;stroke-miterlimit:1.41421;">
    <g transform="matrix(1,0,0,1,-39.2241,-59.9954)">
        <g transform="matrix(1,0,0,1,-491.96,-189.367)">
            <g transform="matrix(0.913356,0,0,1.05337,140.672,29.4682)">
                <rect x="427.558" y="208.752" width="87.589" height="75.946" style="fill:none;"/>
            </g>
            <g transform="matrix(0.577267,0,0,0.577267,75.7459,110.332)">
                <path d="M799.528,274.836C800.709,272.626 802.902,271.274 802.902,271.274L853.06,242.328C853.06,242.328 855.195,240.999 858.051,240.962C860.767,240.927 863.06,242.349 863.06,242.349L912.918,271.274C912.918,271.274 915.079,272.667 916.281,274.836C917.592,277.201 917.646,279.661 917.646,279.661L917.646,342.504C917.646,342.504 917.732,344.871 916.281,347.321C914.779,349.859 912.587,350.96 912.587,350.96L862.926,379.546L862.926,346.6L890.871,330.479C890.871,330.479 892.687,329.32 893.033,327.752C893.32,326.454 893.525,325.132 892.36,323.378C891.666,322.334 890.44,321.442 888.92,321.252C886.885,320.998 885.496,322.016 885.496,322.016L862.926,335.053L862.926,311.392L877.711,302.856C877.711,302.856 879.843,301.759 880.212,299.226C880.471,297.45 879.77,296.129 879.052,295.251C878.448,294.513 877.383,293.808 876.146,293.59C874.244,293.256 872.97,294.051 872.97,294.051L862.926,299.845L862.926,277.066C862.926,277.066 863.017,275.35 861.51,273.757C860.644,272.841 859.289,272.247 857.929,272.248C856.541,272.248 855.306,272.782 854.333,273.757C852.956,275.136 852.92,277.066 852.92,277.066L852.926,299.841L842.969,294.089C842.969,294.089 841.208,293.044 839.095,293.735C838.061,294.074 837.162,294.698 836.471,295.678C835.801,296.627 835.35,298.088 835.786,299.841C836.264,301.762 837.979,302.757 837.979,302.757L852.926,311.392L852.92,334.996L830.435,322.066C830.435,322.066 829.042,321.036 827.115,321.231C825.737,321.371 824.373,322.126 823.498,323.378C822.749,324.451 822.304,325.997 822.864,327.752C823.468,329.64 825.228,330.607 825.228,330.607L852.92,346.595L852.926,346.598L852.926,379.546L803.166,350.878C803.166,350.878 800.942,349.617 799.528,347.248C798.277,345.152 798.221,342.504 798.221,342.504L798.221,279.661C798.221,279.661 798.054,277.594 799.528,274.836Z" style="fill:rgb(83,191,31);"/>
            </g>
        </g>
        <g transform="matrix(0.908668,0,0,0.612052,4.10229,36.9289)">
            <g transform="matrix(1.10051,0,0,1.63385,-12.7592,-46.0321)">
                <path d="M134.657,85.192L138.612,85.192L138.612,86.774C139.374,85.977 140.024,85.438 140.563,85.156C141.137,84.863 141.858,84.717 142.725,84.717C144.659,84.717 146.188,85.561 147.313,87.248C148.555,85.561 150.237,84.717 152.358,84.717C156.214,84.717 158.141,87.055 158.141,91.731L158.141,102.313L154.169,102.313L154.169,92.803C154.169,91.162 153.97,90.002 153.571,89.322C153.161,88.631 152.487,88.285 151.55,88.285C150.46,88.285 149.666,88.695 149.168,89.516C148.67,90.336 148.421,91.654 148.421,93.471L148.421,102.313L144.448,102.313L144.448,92.856C144.448,89.809 143.569,88.285 141.811,88.285C140.698,88.285 139.887,88.701 139.377,89.533C138.867,90.365 138.612,91.678 138.612,93.471L138.612,102.313L134.657,102.313L134.657,85.192Z" style="fill-rule:nonzero;"/>
            </g>
            <g transform="matrix(1.10051,0,0,1.63385,-12.7592,-46.0321)">
                <path d="M171.378,79.022L171.378,102.313L167.282,102.313L167.282,79.022L161.042,79.022L161.042,75.172L177.6,75.172L177.6,79.022L171.378,79.022Z" style="fill-rule:nonzero;"/>
            </g>
            <g transform="matrix(1.10051,0,0,1.63385,-12.7592,-46.0321)">
                <path d="M179.27,85.192L183.225,85.192L183.225,86.721C183.952,85.959 184.596,85.438 185.159,85.156C185.733,84.863 186.413,84.717 187.198,84.717C188.241,84.717 189.331,85.057 190.468,85.736L188.657,89.358C187.907,88.818 187.175,88.549 186.46,88.549C184.304,88.549 183.225,90.178 183.225,93.436L183.225,102.313L179.27,102.313L179.27,85.192Z" style="fill-rule:nonzero;"/>
            </g>
            <g transform="matrix(1.10051,0,0,1.63385,-12.7592,-46.0321)">
                <path d="M208.081,94.684L195.811,94.684C195.917,96.09 196.374,97.209 197.182,98.041C197.991,98.861 199.028,99.272 200.294,99.272C201.278,99.272 202.093,99.037 202.737,98.568C203.37,98.1 204.091,97.233 204.899,95.967L208.239,97.83C207.723,98.709 207.179,99.462 206.604,100.089C206.03,100.716 205.415,101.232 204.759,101.636C204.102,102.04 203.393,102.336 202.632,102.524C201.87,102.711 201.044,102.805 200.153,102.805C197.598,102.805 195.548,101.984 194.001,100.344C192.454,98.692 191.68,96.5 191.68,93.77C191.68,91.063 192.43,88.871 193.93,87.195C195.442,85.543 197.446,84.717 199.942,84.717C202.462,84.717 204.454,85.52 205.919,87.125C207.372,88.719 208.098,90.928 208.098,93.752L208.081,94.684ZM204.02,91.449C203.47,89.34 202.139,88.285 200.03,88.285C199.55,88.285 199.098,88.359 198.677,88.505C198.255,88.651 197.871,88.862 197.525,89.138C197.179,89.413 196.884,89.744 196.637,90.131C196.391,90.518 196.204,90.957 196.075,91.449L204.02,91.449Z" style="fill-rule:nonzero;"/>
            </g>
            <g transform="matrix(1.10051,0,0,1.63385,-12.7592,-46.0321)">
                <path d="M227.997,94.684L215.727,94.684C215.833,96.09 216.29,97.209 217.098,98.041C217.907,98.861 218.944,99.272 220.21,99.272C221.194,99.272 222.009,99.037 222.653,98.568C223.286,98.1 224.007,97.233 224.815,95.967L228.155,97.83C227.639,98.709 227.095,99.462 226.52,100.089C225.946,100.716 225.331,101.232 224.675,101.636C224.018,102.04 223.309,102.336 222.548,102.524C221.786,102.711 220.96,102.805 220.069,102.805C217.514,102.805 215.464,101.984 213.917,100.344C212.37,98.692 211.596,96.5 211.596,93.77C211.596,91.063 212.346,88.871 213.846,87.195C215.358,85.543 217.362,84.717 219.858,84.717C222.378,84.717 224.37,85.52 225.835,87.125C227.288,88.719 228.014,90.928 228.014,93.752L227.997,94.684ZM223.936,91.449C223.386,89.34 222.055,88.285 219.946,88.285C219.466,88.285 219.014,88.359 218.593,88.505C218.171,88.651 217.787,88.862 217.441,89.138C217.095,89.413 216.8,89.744 216.554,90.131C216.307,90.518 216.12,90.957 215.991,91.449L223.936,91.449Z" style="fill-rule:nonzero;"/>
            </g>
            <g transform="matrix(1.10051,0,0,1.63385,-12.7592,-46.0321)">
                <path d="M232.936,100.344C232.936,99.688 233.177,99.119 233.657,98.639C234.137,98.158 234.712,97.918 235.38,97.918C236.048,97.918 236.622,98.158 237.102,98.639C237.583,99.119 237.823,99.693 237.823,100.361C237.823,101.041 237.583,101.621 237.102,102.102C236.634,102.57 236.059,102.805 235.38,102.805C234.688,102.805 234.108,102.57 233.639,102.102C233.171,101.633 232.936,101.047 232.936,100.344Z" style="fill-rule:nonzero;"/>
            </g>
            <g transform="matrix(1.10051,0,0,1.63385,-12.7592,-46.0321)">
                <path d="M247.386,85.192L247.386,102.313L243.43,102.313L243.43,85.192L247.386,85.192ZM242.833,78.072C242.833,77.381 243.085,76.783 243.589,76.279C244.093,75.776 244.696,75.524 245.399,75.524C246.114,75.524 246.723,75.776 247.227,76.279C247.731,76.772 247.983,77.375 247.983,78.09C247.983,78.805 247.731,79.414 247.227,79.918C246.735,80.422 246.132,80.674 245.417,80.674C244.702,80.674 244.093,80.422 243.589,79.918C243.085,79.414 242.833,78.799 242.833,78.072Z" style="fill-rule:nonzero;"/>
            </g>
            <g transform="matrix(1.10051,0,0,1.63385,-12.7592,-46.0321)">
                <path d="M251.587,93.629C251.587,91.156 252.471,89.053 254.241,87.318C256.011,85.584 258.167,84.717 260.71,84.717C263.264,84.717 265.432,85.59 267.214,87.336C268.971,89.082 269.85,91.227 269.85,93.77C269.85,96.336 268.966,98.486 267.196,100.221C265.415,101.943 263.229,102.805 260.639,102.805C258.073,102.805 255.923,101.926 254.188,100.168C252.454,98.434 251.587,96.254 251.587,93.629ZM255.63,93.699C255.63,95.41 256.087,96.764 257.001,97.76C257.938,98.768 259.175,99.272 260.71,99.272C262.257,99.272 263.493,98.774 264.419,97.777C265.345,96.781 265.807,95.451 265.807,93.787C265.807,92.123 265.345,90.793 264.419,89.797C263.481,88.789 262.245,88.285 260.71,88.285C259.198,88.285 257.973,88.789 257.036,89.797C256.098,90.805 255.63,92.106 255.63,93.699Z" style="fill-rule:nonzero;"/>
            </g>
        </g>
    </g>
</svg>
